<svg xmlns="http://www.w3.org/2000/svg" xmlns:xlink="http://www.w3.org/1999/xlink" width="1850" height="733.01"><rect width="1850" height="733.01" rx="5" ry="5" class="a"/><svg y="0%" x="0%"><circle cx="20" cy="20" r="6" fill="#ff5f58"/><circle cx="40" cy="20" r="6" fill="#ffbd2e"/><circle cx="60" cy="20" r="6" fill="#18c132"/></svg><svg height="673.01" viewBox="0 0 181 67.301" width="1810" x="15" xmlns="http://www.w3.org/2000/svg" xmlns:xlink="http://www.w3.org/1999/xlink" y="50"><style>@keyframes m{0%{transform:translateX(0)}2.5%{transform:translateX(-181px)}4.2%{transform:translateX(-362px)}5%{transform:translateX(-543px)}6.2%{transform:translateX(-724px)}7.4%{transform:translateX(-905px)}8.2%{transform:translateX(-1086px)}8.9%{transform:translateX(-1267px)}10.6%{transform:translateX(-1448px)}11.4%{transform:translateX(-1629px)}12.5%{transform:translateX(-1810px)}13.4%{transform:translateX(-1991px)}21.3%{transform:translateX(-2172px)}24.9%{transform:translateX(-2353px)}26.1%{transform:translateX(-2534px)}26.9%{transform:translateX(-2715px)}28.5%{transform:translateX(-2896px)}29.7%{transform:translateX(-3077px)}30.3%{transform:translateX(-3258px)}30.9%{transform:translateX(-3439px)}31.4%{transform:translateX(-3620px)}32.8%{transform:translateX(-3801px)}35.4%{transform:translateX(-3982px)}36.4%{transform:translateX(-4163px)}37.6%{transform:translateX(-4344px)}38.6%{transform:translateX(-4525px)}40.1%{transform:translateX(-4706px)}41.8%{transform:translateX(-4887px)}44%{transform:translateX(-5068px)}45.3%{transform:translateX(-5249px)}46.1%{transform:translateX(-5430px)}50.1%{transform:translateX(-5611px)}51.7%{transform:translateX(-5792px)}53.5%{transform:translateX(-5973px)}56.5%{transform:translateX(-6154px)}60.6%{transform:translateX(-6335px)}63.5%{transform:translateX(-6516px)}64.7%{transform:translateX(-6697px)}65.5%{transform:translateX(-6878px)}66.9%{transform:translateX(-7059px)}67.9%{transform:translateX(-7240px)}69.2%{transform:translateX(-7421px)}69.8%{transform:translateX(-7602px)}72.2%{transform:translateX(-7783px)}80%{transform:translateX(-8326px)}80.4%{transform:translateX(-8507px)}81.2%{transform:translateX(-8688px)}81.4%{transform:translateX(-9231px)}81.5%{transform:translateX(-9412px)}82.1%{transform:translateX(-9774px)}to{transform:translateX(-9955px)}}.a{fill:#282d35}.f,.g,.h,.i{fill:#a8cc8c;font-weight:700}.g,.h,.i{fill:#66c2cd}.h,.i{fill:#71bef2}.i{fill:#e88388}.j{fill:#b9c0cb}.k{fill:#a8cc8c}</style><g font-size="1.67" font-family="Monaco,Consolas,Menlo,'Bitstream Vera Sans Mono','Powerline Symbols',monospace"><defs><symbol id="12"><text y="1.67" class="j">Resource:</text><text x="11.022" y="1.67" class="j">sec-bankaccounts-internal-virtualservice</text></symbol><symbol id="1"><text y="1.67" class="f">➜</text><text x="3.006" y="1.67" class="g">istiops</text><text x="11.022" y="1.67" class="h">git:(</text><text x="16.032" y="1.67" class="i">master</text><text x="22.044" y="1.67" class="h">)</text><text x="24.048" y="1.67" class="j">istiops</text><text x="32.064" y="1.67" class="j">traffic</text><text x="40.08" y="1.67" class="j">show</text><text x="45.09" y="1.67" class="j">-l</text><text x="48.096" y="1.67" class="j">environment=pipeline-go</text></symbol><symbol id="3"><text y="1.67" class="f">➜</text><text x="3.006" y="1.67" class="g">istiops</text><text x="11.022" y="1.67" class="h">git:(</text><text x="16.032" y="1.67" class="i">master</text><text x="22.044" y="1.67" class="h">)</text><text x="24.048" y="1.67" class="j">istiops</text><text x="32.064" y="1.67" class="j">traffic</text><text x="40.08" y="1.67" class="j">show</text><text x="45.09" y="1.67" class="j">-l</text><text x="48.096" y="1.67" class="j">environment=pipeline-go</text><text x="72.144" y="1.67" class="j">-o</text><text x="75.15" y="1.67" class="j">a</text></symbol><symbol id="4"><text y="1.67" class="f">➜</text><text x="3.006" y="1.67" class="g">istiops</text><text x="11.022" y="1.67" class="h">git:(</text><text x="16.032" y="1.67" class="i">master</text><text x="22.044" y="1.67" class="h">)</text><text x="24.048" y="1.67" class="j">istiops</text><text x="32.064" y="1.67" class="j">traffic</text><text x="40.08" y="1.67" class="j">show</text><text x="45.09" y="1.67" class="j">-l</text><text x="48.096" y="1.67" class="j">environment=pipeline-go</text><text x="72.144" y="1.67" class="j">-o</text><text x="75.15" y="1.67" class="j">au</text></symbol><symbol id="5"><text y="1.67" class="f">➜</text><text x="3.006" y="1.67" class="g">istiops</text><text x="11.022" y="1.67" class="h">git:(</text><text x="16.032" y="1.67" class="i">master</text><text x="22.044" y="1.67" class="h">)</text><text x="24.048" y="1.67" class="j">istiops</text><text x="32.064" y="1.67" class="j">traffic</text><text x="40.08" y="1.67" class="j">show</text><text x="45.09" y="1.67" class="j">-l</text><text x="48.096" y="1.67" class="j">environment=pipeline-go</text><text x="72.144" y="1.67" class="j">-o</text><text x="75.15" y="1.67" class="j">beautified</text></symbol><symbol id="6"><text y="1.67" class="j">{&quot;cid&quot;:&quot;bd3e9784-d356-11e9-b1b9-a45e60ef7943&quot;,&quot;level&quot;:&quot;info&quot;,&quot;logdate&quot;:&quot;2019-09-09</text><text x="83.166" y="1.67" class="j">20:08:30.715&quot;,&quot;text&quot;:&quot;Getting</text><text x="113.226" y="1.67" class="j">destinationRules</text><text x="130.26" y="1.67" class="j">which</text><text x="136.272" y="1.67" class="j">matches</text><text x="144.288" y="1.67" class="j">label-selector</text><text x="159.318" y="1.67" class="j">&apos;map[environment:pipel</text></symbol><symbol id="7"><text y="1.67" class="j">ine-go]&apos;&quot;}</text></symbol><symbol id="8"><text y="1.67" class="j">{&quot;cid&quot;:&quot;bd3e9784-d356-11e9-b1b9-a45e60ef7943&quot;,&quot;level&quot;:&quot;info&quot;,&quot;logdate&quot;:&quot;2019-09-09</text><text x="83.166" y="1.67" class="j">20:08:30.795&quot;,&quot;text&quot;:&quot;Getting</text><text x="113.226" y="1.67" class="j">virtualServices</text><text x="129.258" y="1.67" class="j">which</text><text x="135.27" y="1.67" class="j">matches</text><text x="143.286" y="1.67" class="j">label-selector</text><text x="158.316" y="1.67" class="j">&apos;map[environment:pipeli</text></symbol><symbol id="9"><text y="1.67" class="j">ne-go]&apos;&quot;}</text></symbol><symbol id="10"><text y="1.67" class="j">{&quot;cid&quot;:&quot;bd3e9784-d356-11e9-b1b9-a45e60ef7943&quot;,&quot;level&quot;:&quot;info&quot;,&quot;logdate&quot;:&quot;2019-09-09</text><text x="83.166" y="1.67" class="j">20:08:30.814&quot;,&quot;text&quot;:&quot;Listing</text><text x="113.226" y="1.67" class="j">all</text><text x="117.234" y="1.67" class="j">current</text><text x="125.25" y="1.67" class="j">active</text><text x="132.264" y="1.67" class="j">routing</text><text x="140.28" y="1.67" class="j">rules&quot;}</text></symbol><symbol id="11"><text y="1.67" class="j">--</text></symbol><symbol id="2"><text y="1.67" class="f">➜</text><text x="3.006" y="1.67" class="g">istiops</text><text x="11.022" y="1.67" class="h">git:(</text><text x="16.032" y="1.67" class="i">master</text><text x="22.044" y="1.67" class="h">)</text><text x="24.048" y="1.67" class="j">istiops</text><text x="32.064" y="1.67" class="j">traffic</text><text x="40.08" y="1.67" class="j">show</text><text x="45.09" y="1.67" class="j">-l</text><text x="48.096" y="1.67" class="j">environment=pipeline-go</text><text x="72.144" y="1.67" class="j">-o</text></symbol><symbol id="13"><text y="1.67" class="j">client</text><text x="7.014" y="1.67" class="j">-&gt;</text><text x="10.02" y="1.67" class="j">request</text><text x="18.036" y="1.67" class="j">to</text><text x="21.042" y="1.67" class="j">-&gt;</text><text x="25.05" y="1.67" class="j">[api.domain.io]</text></symbol><symbol id="14"><text x="2.004" y="1.67" class="k">\_</text><text x="5.01" y="1.67" class="k">regex:&quot;.+&quot;</text></symbol><symbol id="15"><text x="7.014" y="1.67" class="j">\_</text><text x="10.02" y="1.67" class="j">Destination</text><text x="22.044" y="1.67" class="j">[k8s</text><text x="27.054" y="1.67" class="j">service]</text></symbol><symbol id="16"><text x="9.018" y="1.67" class="j">-</text><text x="11.022" y="1.67" class="j">api-domain:5000</text></symbol><symbol id="17"><text x="12.024" y="1.67" class="j">\_</text><text x="15.03" y="1.67" class="j">100</text><text x="19.038" y="1.67" class="j">%</text><text x="21.042" y="1.67" class="j">of</text><text x="24.048" y="1.67" class="j">requests</text><text x="33.066" y="1.67" class="j">for</text><text x="37.074" y="1.67" class="j">pods</text><text x="42.084" y="1.67" class="j">with</text><text x="47.094" y="1.67" class="j">labels</text></symbol><symbol id="18"><text x="15.03" y="1.67" class="j">|-</text><text x="18.036" y="1.67" class="j">app:</text><text x="23.046" y="1.67" class="j">api-domain</text></symbol><symbol id="19"><text x="15.03" y="1.67" class="j">|-</text><text x="18.036" y="1.67" class="j">build:</text><text x="25.05" y="1.67" class="j">PR-10</text></symbol><symbol id="20"><text y="1.67" class="j">Resource:</text><text x="11.022" y="1.67" class="j">sec-bankaccounts-virtualservice</text></symbol><symbol id="21"><text y="1.67" class="f">➜</text><text x="3.006" y="1.67" class="g">istiops</text><text x="11.022" y="1.67" class="h">git:(</text><text x="16.032" y="1.67" class="i">master</text><text x="22.044" y="1.67" class="h">)</text></symbol><symbol id="a"><path fill="transparent" d="M0 0h181v31H0z"/></symbol></defs><path class="a" d="M0 0h181v67.301H0z"/><g style="animation-duration:9.616467s;animation-iteration-count:infinite;animation-name:m;animation-timing-function:steps(1,end)"><svg width="10136"><svg><use xlink:href="#a"/><text y="1.67" class="f">➜</text><text x="3.006" y="1.67" class="g">istiops</text><text x="11.022" y="1.67" class="h">git:(</text><text x="16.032" y="1.67" class="i">master</text><text x="22.044" y="1.67" class="h">)</text><text x="24.048" y="1.67" class="j">istiops</text><text x="32.064" y="1.67" class="j">traffic</text><text x="40.08" y="1.67" class="j">show</text><text x="45.09" y="1.67" class="j">-l</text></svg><svg x="181"><use xlink:href="#a"/><text y="1.67" class="f">➜</text><text x="3.006" y="1.67" class="g">istiops</text><text x="11.022" y="1.67" class="h">git:(</text><text x="16.032" y="1.67" class="i">master</text><text x="22.044" y="1.67" class="h">)</text><text x="24.048" y="1.67" class="j">istiops</text><text x="32.064" y="1.67" class="j">traffic</text><text x="40.08" y="1.67" class="j">show</text><text x="45.09" y="1.67" class="j">-l</text><text x="48.096" y="1.67" class="j">e</text></svg><svg x="362"><use xlink:href="#a"/><text y="1.67" class="f">➜</text><text x="3.006" y="1.67" class="g">istiops</text><text x="11.022" y="1.67" class="h">git:(</text><text x="16.032" y="1.67" class="i">master</text><text x="22.044" y="1.67" class="h">)</text><text x="24.048" y="1.67" class="j">istiops</text><text x="32.064" y="1.67" class="j">traffic</text><text x="40.08" y="1.67" class="j">show</text><text x="45.09" y="1.67" class="j">-l</text><text x="48.096" y="1.67" class="j">en</text></svg><svg x="543"><use xlink:href="#a"/><text y="1.67" class="f">➜</text><text x="3.006" y="1.67" class="g">istiops</text><text x="11.022" y="1.67" class="h">git:(</text><text x="16.032" y="1.67" class="i">master</text><text x="22.044" y="1.67" class="h">)</text><text x="24.048" y="1.67" class="j">istiops</text><text x="32.064" y="1.67" class="j">traffic</text><text x="40.08" y="1.67" class="j">show</text><text x="45.09" y="1.67" class="j">-l</text><text x="48.096" y="1.67" class="j">env</text></svg><svg x="724"><use xlink:href="#a"/><text y="1.67" class="f">➜</text><text x="3.006" y="1.67" class="g">istiops</text><text x="11.022" y="1.67" class="h">git:(</text><text x="16.032" y="1.67" class="i">master</text><text x="22.044" y="1.67" class="h">)</text><text x="24.048" y="1.67" class="j">istiops</text><text x="32.064" y="1.67" class="j">traffic</text><text x="40.08" y="1.67" class="j">show</text><text x="45.09" y="1.67" class="j">-l</text><text x="48.096" y="1.67" class="j">envi</text></svg><svg x="905"><use xlink:href="#a"/><text y="1.67" class="f">➜</text><text x="3.006" y="1.67" class="g">istiops</text><text x="11.022" y="1.67" class="h">git:(</text><text x="16.032" y="1.67" class="i">master</text><text x="22.044" y="1.67" class="h">)</text><text x="24.048" y="1.67" class="j">istiops</text><text x="32.064" y="1.67" class="j">traffic</text><text x="40.08" y="1.67" class="j">show</text><text x="45.09" y="1.67" class="j">-l</text><text x="48.096" y="1.67" class="j">envir</text></svg><svg x="1086"><use xlink:href="#a"/><text y="1.67" class="f">➜</text><text x="3.006" y="1.67" class="g">istiops</text><text x="11.022" y="1.67" class="h">git:(</text><text x="16.032" y="1.67" class="i">master</text><text x="22.044" y="1.67" class="h">)</text><text x="24.048" y="1.67" class="j">istiops</text><text x="32.064" y="1.67" class="j">traffic</text><text x="40.08" y="1.67" class="j">show</text><text x="45.09" y="1.67" class="j">-l</text><text x="48.096" y="1.67" class="j">enviro</text></svg><svg x="1267"><use xlink:href="#a"/><text y="1.67" class="f">➜</text><text x="3.006" y="1.67" class="g">istiops</text><text x="11.022" y="1.67" class="h">git:(</text><text x="16.032" y="1.67" class="i">master</text><text x="22.044" y="1.67" class="h">)</text><text x="24.048" y="1.67" class="j">istiops</text><text x="32.064" y="1.67" class="j">traffic</text><text x="40.08" y="1.67" class="j">show</text><text x="45.09" y="1.67" class="j">-l</text><text x="48.096" y="1.67" class="j">environ</text></svg><svg x="1448"><use xlink:href="#a"/><text y="1.67" class="f">➜</text><text x="3.006" y="1.67" class="g">istiops</text><text x="11.022" y="1.67" class="h">git:(</text><text x="16.032" y="1.67" class="i">master</text><text x="22.044" y="1.67" class="h">)</text><text x="24.048" y="1.67" class="j">istiops</text><text x="32.064" y="1.67" class="j">traffic</text><text x="40.08" y="1.67" class="j">show</text><text x="45.09" y="1.67" class="j">-l</text><text x="48.096" y="1.67" class="j">environm</text></svg><svg x="1629"><use xlink:href="#a"/><text y="1.67" class="f">➜</text><text x="3.006" y="1.67" class="g">istiops</text><text x="11.022" y="1.67" class="h">git:(</text><text x="16.032" y="1.67" class="i">master</text><text x="22.044" y="1.67" class="h">)</text><text x="24.048" y="1.67" class="j">istiops</text><text x="32.064" y="1.67" class="j">traffic</text><text x="40.08" y="1.67" class="j">show</text><text x="45.09" y="1.67" class="j">-l</text><text x="48.096" y="1.67" class="j">environme</text></svg><svg x="1810"><use xlink:href="#a"/><text y="1.67" class="f">➜</text><text x="3.006" y="1.67" class="g">istiops</text><text x="11.022" y="1.67" class="h">git:(</text><text x="16.032" y="1.67" class="i">master</text><text x="22.044" y="1.67" class="h">)</text><text x="24.048" y="1.67" class="j">istiops</text><text x="32.064" y="1.67" class="j">traffic</text><text x="40.08" y="1.67" class="j">show</text><text x="45.09" y="1.67" class="j">-l</text><text x="48.096" y="1.67" class="j">environmen</text></svg><svg x="1991"><use xlink:href="#a"/><text y="1.67" class="f">➜</text><text x="3.006" y="1.67" class="g">istiops</text><text x="11.022" y="1.67" class="h">git:(</text><text x="16.032" y="1.67" class="i">master</text><text x="22.044" y="1.67" class="h">)</text><text x="24.048" y="1.67" class="j">istiops</text><text x="32.064" y="1.67" class="j">traffic</text><text x="40.08" y="1.67" class="j">show</text><text x="45.09" y="1.67" class="j">-l</text><text x="48.096" y="1.67" class="j">environment</text></svg><svg x="2172"><use xlink:href="#a"/><text y="1.67" class="f">➜</text><text x="3.006" y="1.67" class="g">istiops</text><text x="11.022" y="1.67" class="h">git:(</text><text x="16.032" y="1.67" class="i">master</text><text x="22.044" y="1.67" class="h">)</text><text x="24.048" y="1.67" class="j">istiops</text><text x="32.064" y="1.67" class="j">traffic</text><text x="40.08" y="1.67" class="j">show</text><text x="45.09" y="1.67" class="j">-l</text><text x="48.096" y="1.67" class="j">environment=</text></svg><svg x="2353"><use xlink:href="#a"/><text y="1.67" class="f">➜</text><text x="3.006" y="1.67" class="g">istiops</text><text x="11.022" y="1.67" class="h">git:(</text><text x="16.032" y="1.67" class="i">master</text><text x="22.044" y="1.67" class="h">)</text><text x="24.048" y="1.67" class="j">istiops</text><text x="32.064" y="1.67" class="j">traffic</text><text x="40.08" y="1.67" class="j">show</text><text x="45.09" y="1.67" class="j">-l</text><text x="48.096" y="1.67" class="j">environment=p</text></svg><svg x="2534"><use xlink:href="#a"/><text y="1.67" class="f">➜</text><text x="3.006" y="1.67" class="g">istiops</text><text x="11.022" y="1.67" class="h">git:(</text><text x="16.032" y="1.67" class="i">master</text><text x="22.044" y="1.67" class="h">)</text><text x="24.048" y="1.67" class="j">istiops</text><text x="32.064" y="1.67" class="j">traffic</text><text x="40.08" y="1.67" class="j">show</text><text x="45.09" y="1.67" class="j">-l</text><text x="48.096" y="1.67" class="j">environment=pi</text></svg><svg x="2715"><use xlink:href="#a"/><text y="1.67" class="f">➜</text><text x="3.006" y="1.67" class="g">istiops</text><text x="11.022" y="1.67" class="h">git:(</text><text x="16.032" y="1.67" class="i">master</text><text x="22.044" y="1.67" class="h">)</text><text x="24.048" y="1.67" class="j">istiops</text><text x="32.064" y="1.67" class="j">traffic</text><text x="40.08" y="1.67" class="j">show</text><text x="45.09" y="1.67" class="j">-l</text><text x="48.096" y="1.67" class="j">environment=pip</text></svg><svg x="2896"><use xlink:href="#a"/><text y="1.67" class="f">➜</text><text x="3.006" y="1.67" class="g">istiops</text><text x="11.022" y="1.67" class="h">git:(</text><text x="16.032" y="1.67" class="i">master</text><text x="22.044" y="1.67" class="h">)</text><text x="24.048" y="1.67" class="j">istiops</text><text x="32.064" y="1.67" class="j">traffic</text><text x="40.08" y="1.67" class="j">show</text><text x="45.09" y="1.67" class="j">-l</text><text x="48.096" y="1.67" class="j">environment=pipe</text></svg><svg x="3077"><use xlink:href="#a"/><text y="1.67" class="f">➜</text><text x="3.006" y="1.67" class="g">istiops</text><text x="11.022" y="1.67" class="h">git:(</text><text x="16.032" y="1.67" class="i">master</text><text x="22.044" y="1.67" class="h">)</text><text x="24.048" y="1.67" class="j">istiops</text><text x="32.064" y="1.67" class="j">traffic</text><text x="40.08" y="1.67" class="j">show</text><text x="45.09" y="1.67" class="j">-l</text><text x="48.096" y="1.67" class="j">environment=pipel</text></svg><svg x="3258"><use xlink:href="#a"/><text y="1.67" class="f">➜</text><text x="3.006" y="1.67" class="g">istiops</text><text x="11.022" y="1.67" class="h">git:(</text><text x="16.032" y="1.67" class="i">master</text><text x="22.044" y="1.67" class="h">)</text><text x="24.048" y="1.67" class="j">istiops</text><text x="32.064" y="1.67" class="j">traffic</text><text x="40.08" y="1.67" class="j">show</text><text x="45.09" y="1.67" class="j">-l</text><text x="48.096" y="1.67" class="j">environment=pipeli</text></svg><svg x="3439"><use xlink:href="#a"/><text y="1.67" class="f">➜</text><text x="3.006" y="1.67" class="g">istiops</text><text x="11.022" y="1.67" class="h">git:(</text><text x="16.032" y="1.67" class="i">master</text><text x="22.044" y="1.67" class="h">)</text><text x="24.048" y="1.67" class="j">istiops</text><text x="32.064" y="1.67" class="j">traffic</text><text x="40.08" y="1.67" class="j">show</text><text x="45.09" y="1.67" class="j">-l</text><text x="48.096" y="1.67" class="j">environment=pipelin</text></svg><svg x="3620"><use xlink:href="#a"/><text y="1.67" class="f">➜</text><text x="3.006" y="1.67" class="g">istiops</text><text x="11.022" y="1.67" class="h">git:(</text><text x="16.032" y="1.67" class="i">master</text><text x="22.044" y="1.67" class="h">)</text><text x="24.048" y="1.67" class="j">istiops</text><text x="32.064" y="1.67" class="j">traffic</text><text x="40.08" y="1.67" class="j">show</text><text x="45.09" y="1.67" class="j">-l</text><text x="48.096" y="1.67" class="j">environment=pipeline</text></svg><svg x="3801"><use xlink:href="#a"/><text y="1.67" class="f">➜</text><text x="3.006" y="1.67" class="g">istiops</text><text x="11.022" y="1.67" class="h">git:(</text><text x="16.032" y="1.67" class="i">master</text><text x="22.044" y="1.67" class="h">)</text><text x="24.048" y="1.67" class="j">istiops</text><text x="32.064" y="1.67" class="j">traffic</text><text x="40.08" y="1.67" class="j">show</text><text x="45.09" y="1.67" class="j">-l</text><text x="48.096" y="1.67" class="j">environment=pipeline-</text></svg><svg x="3982"><use xlink:href="#a"/><text y="1.67" class="f">➜</text><text x="3.006" y="1.67" class="g">istiops</text><text x="11.022" y="1.67" class="h">git:(</text><text x="16.032" y="1.67" class="i">master</text><text x="22.044" y="1.67" class="h">)</text><text x="24.048" y="1.67" class="j">istiops</text><text x="32.064" y="1.67" class="j">traffic</text><text x="40.08" y="1.67" class="j">show</text><text x="45.09" y="1.67" class="j">-l</text><text x="48.096" y="1.67" class="j">environment=pipeline-g</text></svg><svg x="4163"><use xlink:href="#a"/><use xlink:href="#1"/></svg><svg x="4344"><use xlink:href="#a"/><use xlink:href="#1"/></svg><svg x="4525"><use xlink:href="#a"/><text y="1.67" class="f">➜</text><text x="3.006" y="1.67" class="g">istiops</text><text x="11.022" y="1.67" class="h">git:(</text><text x="16.032" y="1.67" class="i">master</text><text x="22.044" y="1.67" class="h">)</text><text x="24.048" y="1.67" class="j">istiops</text><text x="32.064" y="1.67" class="j">traffic</text><text x="40.08" y="1.67" class="j">show</text><text x="45.09" y="1.67" class="j">-l</text><text x="48.096" y="1.67" class="j">environment=pipeline-go</text><text x="72.144" y="1.67" class="j">-</text></svg><svg x="4706"><use xlink:href="#a"/><use xlink:href="#2"/></svg><svg x="4887"><use xlink:href="#a"/><use xlink:href="#2"/></svg><svg x="5068"><use xlink:href="#a"/><use xlink:href="#3"/></svg><svg x="5249"><use xlink:href="#a"/><use xlink:href="#4"/></svg><svg x="5430"><use xlink:href="#a"/><text y="1.67" class="f">➜</text><text x="3.006" y="1.67" class="g">istiops</text><text x="11.022" y="1.67" class="h">git:(</text><text x="16.032" y="1.67" class="i">master</text><text x="22.044" y="1.67" class="h">)</text><text x="24.048" y="1.67" class="j">istiops</text><text x="32.064" y="1.67" class="j">traffic</text><text x="40.08" y="1.67" class="j">show</text><text x="45.09" y="1.67" class="j">-l</text><text x="48.096" y="1.67" class="j">environment=pipeline-go</text><text x="72.144" y="1.67" class="j">-o</text><text x="75.15" y="1.67" class="j">aut</text></svg><svg x="5611"><use xlink:href="#a"/><use xlink:href="#4"/></svg><svg x="5792"><use xlink:href="#a"/><use xlink:href="#3"/></svg><svg x="5973"><use xlink:href="#a"/><use xlink:href="#2"/></svg><svg x="6154"><use xlink:href="#a"/><text y="1.67" class="f">➜</text><text x="3.006" y="1.67" class="g">istiops</text><text x="11.022" y="1.67" class="h">git:(</text><text x="16.032" y="1.67" class="i">master</text><text x="22.044" y="1.67" class="h">)</text><text x="24.048" y="1.67" class="j">istiops</text><text x="32.064" y="1.67" class="j">traffic</text><text x="40.08" y="1.67" class="j">show</text><text x="45.09" y="1.67" class="j">-l</text><text x="48.096" y="1.67" class="j">environment=pipeline-go</text><text x="72.144" y="1.67" class="j">-o</text><text x="75.15" y="1.67" class="j">b</text></svg><svg x="6335"><use xlink:href="#a"/><text y="1.67" class="f">➜</text><text x="3.006" y="1.67" class="g">istiops</text><text x="11.022" y="1.67" class="h">git:(</text><text x="16.032" y="1.67" class="i">master</text><text x="22.044" y="1.67" class="h">)</text><text x="24.048" y="1.67" class="j">istiops</text><text x="32.064" y="1.67" class="j">traffic</text><text x="40.08" y="1.67" class="j">show</text><text x="45.09" y="1.67" class="j">-l</text><text x="48.096" y="1.67" class="j">environment=pipeline-go</text><text x="72.144" y="1.67" class="j">-o</text><text x="75.15" y="1.67" class="j">be</text></svg><svg x="6516"><use xlink:href="#a"/><text y="1.67" class="f">➜</text><text x="3.006" y="1.67" class="g">istiops</text><text x="11.022" y="1.67" class="h">git:(</text><text x="16.032" y="1.67" class="i">master</text><text x="22.044" y="1.67" class="h">)</text><text x="24.048" y="1.67" class="j">istiops</text><text x="32.064" y="1.67" class="j">traffic</text><text x="40.08" y="1.67" class="j">show</text><text x="45.09" y="1.67" class="j">-l</text><text x="48.096" y="1.67" class="j">environment=pipeline-go</text><text x="72.144" y="1.67" class="j">-o</text><text x="75.15" y="1.67" class="j">bea</text></svg><svg x="6697"><use xlink:href="#a"/><text y="1.67" class="f">➜</text><text x="3.006" y="1.67" class="g">istiops</text><text x="11.022" y="1.67" class="h">git:(</text><text x="16.032" y="1.67" class="i">master</text><text x="22.044" y="1.67" class="h">)</text><text x="24.048" y="1.67" class="j">istiops</text><text x="32.064" y="1.67" class="j">traffic</text><text x="40.08" y="1.67" class="j">show</text><text x="45.09" y="1.67" class="j">-l</text><text x="48.096" y="1.67" class="j">environment=pipeline-go</text><text x="72.144" y="1.67" class="j">-o</text><text x="75.15" y="1.67" class="j">beau</text></svg><svg x="6878"><use xlink:href="#a"/><text y="1.67" class="f">➜</text><text x="3.006" y="1.67" class="g">istiops</text><text x="11.022" y="1.67" class="h">git:(</text><text x="16.032" y="1.67" class="i">master</text><text x="22.044" y="1.67" class="h">)</text><text x="24.048" y="1.67" class="j">istiops</text><text x="32.064" y="1.67" class="j">traffic</text><text x="40.08" y="1.67" class="j">show</text><text x="45.09" y="1.67" class="j">-l</text><text x="48.096" y="1.67" class="j">environment=pipeline-go</text><text x="72.144" y="1.67" class="j">-o</text><text x="75.15" y="1.67" class="j">beaut</text></svg><svg x="7059"><use xlink:href="#a"/><text y="1.67" class="f">➜</text><text x="3.006" y="1.67" class="g">istiops</text><text x="11.022" y="1.67" class="h">git:(</text><text x="16.032" y="1.67" class="i">master</text><text x="22.044" y="1.67" class="h">)</text><text x="24.048" y="1.67" class="j">istiops</text><text x="32.064" y="1.67" class="j">traffic</text><text x="40.08" y="1.67" class="j">show</text><text x="45.09" y="1.67" class="j">-l</text><text x="48.096" y="1.67" class="j">environment=pipeline-go</text><text x="72.144" y="1.67" class="j">-o</text><text x="75.15" y="1.67" class="j">beauti</text></svg><svg x="7240"><use xlink:href="#a"/><text y="1.67" class="f">➜</text><text x="3.006" y="1.67" class="g">istiops</text><text x="11.022" y="1.67" class="h">git:(</text><text x="16.032" y="1.67" class="i">master</text><text x="22.044" y="1.67" class="h">)</text><text x="24.048" y="1.67" class="j">istiops</text><text x="32.064" y="1.67" class="j">traffic</text><text x="40.08" y="1.67" class="j">show</text><text x="45.09" y="1.67" class="j">-l</text><text x="48.096" y="1.67" class="j">environment=pipeline-go</text><text x="72.144" y="1.67" class="j">-o</text><text x="75.15" y="1.67" class="j">beautif</text></svg><svg x="7421"><use xlink:href="#a"/><text y="1.67" class="f">➜</text><text x="3.006" y="1.67" class="g">istiops</text><text x="11.022" y="1.67" class="h">git:(</text><text x="16.032" y="1.67" class="i">master</text><text x="22.044" y="1.67" class="h">)</text><text x="24.048" y="1.67" class="j">istiops</text><text x="32.064" y="1.67" class="j">traffic</text><text x="40.08" y="1.67" class="j">show</text><text x="45.09" y="1.67" class="j">-l</text><text x="48.096" y="1.67" class="j">environment=pipeline-go</text><text x="72.144" y="1.67" class="j">-o</text><text x="75.15" y="1.67" class="j">beautifi</text></svg><svg x="7602"><use xlink:href="#a"/><text y="1.67" class="f">➜</text><text x="3.006" y="1.67" class="g">istiops</text><text x="11.022" y="1.67" class="h">git:(</text><text x="16.032" y="1.67" class="i">master</text><text x="22.044" y="1.67" class="h">)</text><text x="24.048" y="1.67" class="j">istiops</text><text x="32.064" y="1.67" class="j">traffic</text><text x="40.08" y="1.67" class="j">show</text><text x="45.09" y="1.67" class="j">-l</text><text x="48.096" y="1.67" class="j">environment=pipeline-go</text><text x="72.144" y="1.67" class="j">-o</text><text x="75.15" y="1.67" class="j">beautifie</text></svg><svg x="7783"><use xlink:href="#a"/><use xlink:href="#5"/></svg><svg x="7964"><use xlink:href="#a"/><use xlink:href="#5"/></svg><svg x="8145"><use xlink:href="#a"/><use xlink:href="#5"/></svg><svg x="8326"><use xlink:href="#a"/><use xlink:href="#5"/></svg><svg x="8507"><use xlink:href="#a"/><use xlink:href="#5"/><use xlink:href="#6" y="2.171"/><use xlink:href="#7" y="4.342"/></svg><svg x="8688"><use xlink:href="#a"/><use xlink:href="#5"/><use xlink:href="#6" y="2.171"/><use xlink:href="#7" y="4.342"/><use xlink:href="#8" y="6.513"/><use xlink:href="#9" y="8.684"/></svg><svg x="8869"><use xlink:href="#a"/><use xlink:href="#5"/><use xlink:href="#6" y="2.171"/><use xlink:href="#7" y="4.342"/><use xlink:href="#8" y="6.513"/><use xlink:href="#9" y="8.684"/><use xlink:href="#10" y="10.855"/><use xlink:href="#11" y="13.026"/><use xlink:href="#12" y="15.197"/><use xlink:href="#13" y="19.539"/></svg><svg x="9050"><use xlink:href="#a"/><use xlink:href="#5"/><use xlink:href="#6" y="2.171"/><use xlink:href="#7" y="4.342"/><use xlink:href="#8" y="6.513"/><use xlink:href="#9" y="8.684"/><use xlink:href="#10" y="10.855"/><use xlink:href="#11" y="13.026"/><use xlink:href="#12" y="15.197"/><use xlink:href="#13" y="19.539"/><use xlink:href="#14" y="21.71"/><use xlink:href="#15" y="23.881"/><use xlink:href="#16" y="26.052"/><use xlink:href="#17" y="28.223"/><use xlink:href="#18" y="30.394"/><use xlink:href="#19" y="32.565"/><use xlink:href="#11" y="39.078"/><use xlink:href="#20" y="41.249"/><use xlink:href="#13" y="45.591"/><use xlink:href="#14" y="47.762"/><use xlink:href="#15" y="49.933"/><use xlink:href="#16" y="52.104"/><use xlink:href="#17" y="54.275"/><use xlink:href="#18" y="56.446"/><use xlink:href="#19" y="58.617"/></svg><svg x="9231"><use xlink:href="#a"/><use xlink:href="#5"/><use xlink:href="#6" y="2.171"/><use xlink:href="#7" y="4.342"/><use xlink:href="#8" y="6.513"/><use xlink:href="#9" y="8.684"/><use xlink:href="#10" y="10.855"/><use xlink:href="#11" y="13.026"/><use xlink:href="#12" y="15.197"/><use xlink:href="#13" y="19.539"/><use xlink:href="#14" y="21.71"/><use xlink:href="#15" y="23.881"/><use xlink:href="#16" y="26.052"/><use xlink:href="#17" y="28.223"/><use xlink:href="#18" y="30.394"/><use xlink:href="#19" y="32.565"/><use xlink:href="#11" y="39.078"/><use xlink:href="#20" y="41.249"/><use xlink:href="#13" y="45.591"/><use xlink:href="#14" y="47.762"/><use xlink:href="#15" y="49.933"/><use xlink:href="#16" y="52.104"/><use xlink:href="#17" y="54.275"/><use xlink:href="#18" y="56.446"/><use xlink:href="#19" y="58.617"/></svg><svg x="9412"><use xlink:href="#a"/><use xlink:href="#5"/><use xlink:href="#6" y="2.171"/><use xlink:href="#7" y="4.342"/><use xlink:href="#8" y="6.513"/><use xlink:href="#9" y="8.684"/><use xlink:href="#10" y="10.855"/><use xlink:href="#11" y="13.026"/><use xlink:href="#12" y="15.197"/><use xlink:href="#13" y="19.539"/><use xlink:href="#14" y="21.71"/><use xlink:href="#15" y="23.881"/><use xlink:href="#16" y="26.052"/><use xlink:href="#17" y="28.223"/><use xlink:href="#18" y="30.394"/><use xlink:href="#19" y="32.565"/><use xlink:href="#11" y="39.078"/><use xlink:href="#20" y="41.249"/><use xlink:href="#13" y="45.591"/><use xlink:href="#14" y="47.762"/><use xlink:href="#15" y="49.933"/><use xlink:href="#16" y="52.104"/><use xlink:href="#17" y="54.275"/><use xlink:href="#18" y="56.446"/><use xlink:href="#19" y="58.617"/></svg><svg x="9593"><use xlink:href="#a"/><use xlink:href="#5"/><use xlink:href="#6" y="2.171"/><use xlink:href="#7" y="4.342"/><use xlink:href="#8" y="6.513"/><use xlink:href="#9" y="8.684"/><use xlink:href="#10" y="10.855"/><use xlink:href="#11" y="13.026"/><use xlink:href="#12" y="15.197"/><use xlink:href="#13" y="19.539"/><use xlink:href="#14" y="21.71"/><use xlink:href="#15" y="23.881"/><use xlink:href="#16" y="26.052"/><use xlink:href="#17" y="28.223"/><use xlink:href="#18" y="30.394"/><use xlink:href="#19" y="32.565"/><use xlink:href="#11" y="39.078"/><use xlink:href="#20" y="41.249"/><use xlink:href="#13" y="45.591"/><use xlink:href="#14" y="47.762"/><use xlink:href="#15" y="49.933"/><use xlink:href="#16" y="52.104"/><use xlink:href="#17" y="54.275"/><use xlink:href="#18" y="56.446"/><use xlink:href="#19" y="58.617"/><use xlink:href="#21" y="65.13"/></svg><svg x="9774"><use xlink:href="#a"/><use xlink:href="#5"/><use xlink:href="#6" y="2.171"/><use xlink:href="#7" y="4.342"/><use xlink:href="#8" y="6.513"/><use xlink:href="#9" y="8.684"/><use xlink:href="#10" y="10.855"/><use xlink:href="#11" y="13.026"/><use xlink:href="#12" y="15.197"/><use xlink:href="#13" y="19.539"/><use xlink:href="#14" y="21.71"/><use xlink:href="#15" y="23.881"/><use xlink:href="#16" y="26.052"/><use xlink:href="#17" y="28.223"/><use xlink:href="#18" y="30.394"/><use xlink:href="#19" y="32.565"/><use xlink:href="#11" y="39.078"/><use xlink:href="#20" y="41.249"/><use xlink:href="#13" y="45.591"/><use xlink:href="#14" y="47.762"/><use xlink:href="#15" y="49.933"/><use xlink:href="#16" y="52.104"/><use xlink:href="#17" y="54.275"/><use xlink:href="#18" y="56.446"/><use xlink:href="#19" y="58.617"/><use xlink:href="#21" y="65.13"/></svg><svg x="9955"><use xlink:href="#a"/><use xlink:href="#6"/><use xlink:href="#7" y="2.171"/><use xlink:href="#8" y="4.342"/><use xlink:href="#9" y="6.513"/><use xlink:href="#10" y="8.684"/><use xlink:href="#11" y="10.855"/><use xlink:href="#12" y="13.026"/><use xlink:href="#13" y="17.368"/><use xlink:href="#14" y="19.539"/><use xlink:href="#15" y="21.71"/><use xlink:href="#16" y="23.881"/><use xlink:href="#17" y="26.052"/><use xlink:href="#18" y="28.223"/><use xlink:href="#19" y="30.394"/><use xlink:href="#11" y="36.907"/><use xlink:href="#20" y="39.078"/><use xlink:href="#13" y="43.42"/><use xlink:href="#14" y="45.591"/><use xlink:href="#15" y="47.762"/><use xlink:href="#16" y="49.933"/><use xlink:href="#17" y="52.104"/><use xlink:href="#18" y="54.275"/><use xlink:href="#19" y="56.446"/><use xlink:href="#21" y="62.959"/></svg></svg></g></g></svg></svg>