<svg xmlns="http://www.w3.org/2000/svg" xmlns:xlink="http://www.w3.org/1999/xlink" width="1850" height="733.01"><rect width="1850" height="733.01" rx="5" ry="5" class="a"/><svg y="0%" x="0%"><circle cx="20" cy="20" r="6" fill="#ff5f58"/><circle cx="40" cy="20" r="6" fill="#ffbd2e"/><circle cx="60" cy="20" r="6" fill="#18c132"/></svg><svg height="673.01" viewBox="0 0 181 67.301" width="1810" x="15" xmlns="http://www.w3.org/2000/svg" xmlns:xlink="http://www.w3.org/1999/xlink" y="50"><style>@keyframes l{0%{transform:translateX(-181px)}.1%{transform:translateX(-543px)}1.4%{transform:translateX(-905px)}1.5%{transform:translateX(-1267px)}1.6%{transform:translateX(-1448px)}4%{transform:translateX(-1810px)}to{transform:translateX(-2172px)}}.a{fill:#282d35}.f,.g,.h,.i{fill:#a8cc8c;font-weight:700}.g,.h,.i{fill:#66c2cd}.h,.i{fill:#71bef2}.i{fill:#e88388}.j{fill:#b9c0cb}</style><g font-size="1.67" font-family="Monaco,Consolas,Menlo,'Bitstream Vera Sans Mono','Powerline Symbols',monospace"><defs><symbol id="10"><text x="2.004" y="1.67" class="j">istiops</text><text x="10.02" y="1.67" class="j">[command]</text></symbol><symbol id="1"><text y="1.67" class="f">➜</text><text x="3.006" y="1.67" class="g">istiops</text><text x="11.022" y="1.67" class="h">git:(</text><text x="16.032" y="1.67" class="i">master</text><text x="22.044" y="1.67" class="h">)</text><text x="24.048" y="1.67" class="j">istiops</text><text x="32.064" y="1.67" class="j">--help</text></symbol><symbol id="3"><text y="1.67" class="j">(_)___|</text><text x="8.016" y="1.67" class="j">|_(_)</text><text x="14.028" y="1.67" class="j">___</text><text x="19.038" y="1.67" class="j">_</text><text x="21.042" y="1.67" class="j">__</text><text x="25.05" y="1.67" class="j">___</text></symbol><symbol id="4"><text y="1.67" class="j">|</text><text x="2.004" y="1.67" class="j">/</text><text x="4.008" y="1.67" class="j">__|</text><text x="8.016" y="1.67" class="j">__|</text><text x="12.024" y="1.67" class="j">|/</text><text x="15.03" y="1.67" class="j">_</text><text x="17.034" y="1.67" class="j">\|</text><text x="20.04" y="1.67" class="j">&apos;_</text><text x="23.046" y="1.67" class="j">\/</text><text x="26.052" y="1.67" class="j">__|</text></symbol><symbol id="5"><text y="1.67" class="j">|</text><text x="2.004" y="1.67" class="j">\__</text><text x="6.012" y="1.67" class="j">\</text><text x="8.016" y="1.67" class="j">|_|</text><text x="12.024" y="1.67" class="j">|</text><text x="14.028" y="1.67" class="j">(_)</text><text x="18.036" y="1.67" class="j">|</text><text x="20.04" y="1.67" class="j">|_)</text><text x="24.048" y="1.67" class="j">\__</text><text x="28.056" y="1.67" class="j">\</text></symbol><symbol id="6"><text y="1.67" class="j">|_|___/\__|_|\___/|</text><text x="20.04" y="1.67" class="j">.__/|___/</text></symbol><symbol id="7"><text x="18.036" y="1.67" class="j">|_|</text></symbol><symbol id="8"><text y="1.67" class="j">Istiops</text><text x="8.016" y="1.67" class="j">is</text><text x="11.022" y="1.67" class="j">a</text><text x="13.026" y="1.67" class="j">CLI</text><text x="17.034" y="1.67" class="j">library</text><text x="25.05" y="1.67" class="j">for</text><text x="29.058" y="1.67" class="j">Go</text><text x="32.064" y="1.67" class="j">that</text><text x="37.074" y="1.67" class="j">manages</text><text x="45.09" y="1.67" class="j">istio&apos;s</text><text x="53.106" y="1.67" class="j">traffic</text><text x="61.122" y="1.67" class="j">shifting</text><text x="70.14" y="1.67" class="j">easily.</text></symbol><symbol id="9"><text y="1.67" class="j">Usage:</text></symbol><symbol id="2"><text x="1.002" y="1.67" class="j">_</text><text x="7.014" y="1.67" class="j">_</text><text x="11.022" y="1.67" class="j">_</text></symbol><symbol id="11"><text y="1.67" class="j">Available</text><text x="10.02" y="1.67" class="j">Commands:</text></symbol><symbol id="12"><text x="2.004" y="1.67" class="j">help</text><text x="14.028" y="1.67" class="j">Help</text><text x="19.038" y="1.67" class="j">about</text><text x="25.05" y="1.67" class="j">any</text><text x="29.058" y="1.67" class="j">command</text></symbol><symbol id="13"><text x="2.004" y="1.67" class="j">traffic</text><text x="14.028" y="1.67" class="j">Manage</text><text x="21.042" y="1.67" class="j">istio&apos;s</text><text x="29.058" y="1.67" class="j">traffic</text><text x="37.074" y="1.67" class="j">rules</text></symbol><symbol id="14"><text x="2.004" y="1.67" class="j">version</text><text x="14.028" y="1.67" class="j">Shows</text><text x="20.04" y="1.67" class="j">current</text><text x="28.056" y="1.67" class="j">build</text><text x="34.068" y="1.67" class="j">version</text></symbol><symbol id="15"><text y="1.67" class="j">Flags:</text></symbol><symbol id="16"><text x="2.004" y="1.67" class="j">-h,</text><text x="6.012" y="1.67" class="j">--help</text><text x="15.03" y="1.67" class="j">help</text><text x="20.04" y="1.67" class="j">for</text><text x="24.048" y="1.67" class="j">istiops</text></symbol><symbol id="17"><text y="1.67" class="j">Use</text><text x="4.008" y="1.67" class="j">&quot;istiops</text><text x="13.026" y="1.67" class="j">[command]</text><text x="23.046" y="1.67" class="j">--help&quot;</text><text x="31.062" y="1.67" class="j">for</text><text x="35.07" y="1.67" class="j">more</text><text x="40.08" y="1.67" class="j">information</text><text x="52.104" y="1.67" class="j">about</text><text x="58.116" y="1.67" class="j">a</text><text x="60.12" y="1.67" class="j">command.</text></symbol><symbol id="18"><text y="1.67" class="f">➜</text><text x="3.006" y="1.67" class="g">istiops</text><text x="11.022" y="1.67" class="h">git:(</text><text x="16.032" y="1.67" class="i">master</text><text x="22.044" y="1.67" class="h">)</text></symbol><symbol id="a"><path fill="transparent" d="M0 0h181v31H0z"/></symbol></defs><path class="a" d="M0 0h181v67.301H0z"/><g style="animation-duration:2.331181s;animation-iteration-count:infinite;animation-name:l;animation-timing-function:steps(1,end)"><svg width="2353"><svg><use xlink:href="#a"/><use xlink:href="#1"/></svg><svg x="181"><use xlink:href="#a"/><use xlink:href="#1"/></svg><svg x="362"><use xlink:href="#a"/><use xlink:href="#1"/></svg><svg x="543"><use xlink:href="#a"/><use xlink:href="#1"/></svg><svg x="724"><use xlink:href="#a"/><use xlink:href="#1"/><use xlink:href="#2" y="4.342"/><use xlink:href="#3" y="6.513"/><use xlink:href="#4" y="8.684"/><use xlink:href="#5" y="10.855"/><use xlink:href="#6" y="13.026"/><use xlink:href="#7" y="15.197"/><use xlink:href="#8" y="19.539"/></svg><svg x="905"><use xlink:href="#a"/><use xlink:href="#1"/><use xlink:href="#2" y="4.342"/><use xlink:href="#3" y="6.513"/><use xlink:href="#4" y="8.684"/><use xlink:href="#5" y="10.855"/><use xlink:href="#6" y="13.026"/><use xlink:href="#7" y="15.197"/><use xlink:href="#8" y="19.539"/><use xlink:href="#9" y="23.881"/><use xlink:href="#10" y="26.052"/><use xlink:href="#11" y="30.394"/><use xlink:href="#12" y="32.565"/><use xlink:href="#13" y="34.736"/><use xlink:href="#14" y="36.907"/><use xlink:href="#15" y="41.249"/><use xlink:href="#16" y="43.42"/><use xlink:href="#17" y="47.762"/></svg><svg x="1086"><use xlink:href="#a"/><use xlink:href="#1"/><use xlink:href="#2" y="4.342"/><use xlink:href="#3" y="6.513"/><use xlink:href="#4" y="8.684"/><use xlink:href="#5" y="10.855"/><use xlink:href="#6" y="13.026"/><use xlink:href="#7" y="15.197"/><use xlink:href="#8" y="19.539"/><use xlink:href="#9" y="23.881"/><use xlink:href="#10" y="26.052"/><use xlink:href="#11" y="30.394"/><use xlink:href="#12" y="32.565"/><use xlink:href="#13" y="34.736"/><use xlink:href="#14" y="36.907"/><use xlink:href="#15" y="41.249"/><use xlink:href="#16" y="43.42"/><use xlink:href="#17" y="47.762"/></svg><svg x="1267"><use xlink:href="#a"/><use xlink:href="#1"/><use xlink:href="#2" y="4.342"/><use xlink:href="#3" y="6.513"/><use xlink:href="#4" y="8.684"/><use xlink:href="#5" y="10.855"/><use xlink:href="#6" y="13.026"/><use xlink:href="#7" y="15.197"/><use xlink:href="#8" y="19.539"/><use xlink:href="#9" y="23.881"/><use xlink:href="#10" y="26.052"/><use xlink:href="#11" y="30.394"/><use xlink:href="#12" y="32.565"/><use xlink:href="#13" y="34.736"/><use xlink:href="#14" y="36.907"/><use xlink:href="#15" y="41.249"/><use xlink:href="#16" y="43.42"/><use xlink:href="#17" y="47.762"/></svg><svg x="1448"><use xlink:href="#a"/><use xlink:href="#1"/><use xlink:href="#2" y="4.342"/><use xlink:href="#3" y="6.513"/><use xlink:href="#4" y="8.684"/><use xlink:href="#5" y="10.855"/><use xlink:href="#6" y="13.026"/><use xlink:href="#7" y="15.197"/><use xlink:href="#8" y="19.539"/><use xlink:href="#9" y="23.881"/><use xlink:href="#10" y="26.052"/><use xlink:href="#11" y="30.394"/><use xlink:href="#12" y="32.565"/><use xlink:href="#13" y="34.736"/><use xlink:href="#14" y="36.907"/><use xlink:href="#15" y="41.249"/><use xlink:href="#16" y="43.42"/><use xlink:href="#17" y="47.762"/></svg><svg x="1629"><use xlink:href="#a"/><use xlink:href="#1"/><use xlink:href="#2" y="4.342"/><use xlink:href="#3" y="6.513"/><use xlink:href="#4" y="8.684"/><use xlink:href="#5" y="10.855"/><use xlink:href="#6" y="13.026"/><use xlink:href="#7" y="15.197"/><use xlink:href="#8" y="19.539"/><use xlink:href="#9" y="23.881"/><use xlink:href="#10" y="26.052"/><use xlink:href="#11" y="30.394"/><use xlink:href="#12" y="32.565"/><use xlink:href="#13" y="34.736"/><use xlink:href="#14" y="36.907"/><use xlink:href="#15" y="41.249"/><use xlink:href="#16" y="43.42"/><use xlink:href="#17" y="47.762"/><use xlink:href="#18" y="49.933"/></svg><svg x="1810"><use xlink:href="#a"/><use xlink:href="#1"/><use xlink:href="#2" y="4.342"/><use xlink:href="#3" y="6.513"/><use xlink:href="#4" y="8.684"/><use xlink:href="#5" y="10.855"/><use xlink:href="#6" y="13.026"/><use xlink:href="#7" y="15.197"/><use xlink:href="#8" y="19.539"/><use xlink:href="#9" y="23.881"/><use xlink:href="#10" y="26.052"/><use xlink:href="#11" y="30.394"/><use xlink:href="#12" y="32.565"/><use xlink:href="#13" y="34.736"/><use xlink:href="#14" y="36.907"/><use xlink:href="#15" y="41.249"/><use xlink:href="#16" y="43.42"/><use xlink:href="#17" y="47.762"/><use xlink:href="#18" y="49.933"/></svg><svg x="1991"><use xlink:href="#a"/><use xlink:href="#1"/><use xlink:href="#2" y="4.342"/><use xlink:href="#3" y="6.513"/><use xlink:href="#4" y="8.684"/><use xlink:href="#5" y="10.855"/><use xlink:href="#6" y="13.026"/><use xlink:href="#7" y="15.197"/><use xlink:href="#8" y="19.539"/><use xlink:href="#9" y="23.881"/><use xlink:href="#10" y="26.052"/><use xlink:href="#11" y="30.394"/><use xlink:href="#12" y="32.565"/><use xlink:href="#13" y="34.736"/><use xlink:href="#14" y="36.907"/><use xlink:href="#15" y="41.249"/><use xlink:href="#16" y="43.42"/><use xlink:href="#17" y="47.762"/><use xlink:href="#18" y="49.933"/></svg><svg x="2172"><use xlink:href="#a"/><use xlink:href="#1"/><use xlink:href="#2" y="4.342"/><use xlink:href="#3" y="6.513"/><use xlink:href="#4" y="8.684"/><use xlink:href="#5" y="10.855"/><use xlink:href="#6" y="13.026"/><use xlink:href="#7" y="15.197"/><use xlink:href="#8" y="19.539"/><use xlink:href="#9" y="23.881"/><use xlink:href="#10" y="26.052"/><use xlink:href="#11" y="30.394"/><use xlink:href="#12" y="32.565"/><use xlink:href="#13" y="34.736"/><use xlink:href="#14" y="36.907"/><use xlink:href="#15" y="41.249"/><use xlink:href="#16" y="43.42"/><use xlink:href="#17" y="47.762"/><use xlink:href="#18" y="49.933"/></svg></svg></g></g></svg></svg>